<?xml version="1.0" standalone="no"?>
<!DOCTYPE svg PUBLIC "-//W3C//DTD SVG 20010904//EN"
 "http://www.w3.org/TR/2001/REC-SVG-20010904/DTD/svg10.dtd">
<svg version="1.0" xmlns="http://www.w3.org/2000/svg"
 width="512.000000pt" height="512.000000pt" viewBox="0 0 512.000000 512.000000"
 preserveAspectRatio="xMidYMid meet">

<g transform="translate(0.000000,512.000000) scale(0.100000,-0.100000)"
fill="#000000" stroke="none">
<path d="M2425 4929 c-269 -34 -546 -188 -714 -397 -74 -92 -155 -237 -189
-337 -45 -134 -54 -201 -59 -467 l-5 -258 -211 0 c-243 0 -295 -9 -427 -73
-69 -34 -102 -58 -175 -132 -74 -73 -99 -106 -133 -175 -51 -106 -74 -200 -74
-310 0 -111 216 -1832 242 -1927 98 -359 406 -620 783 -664 61 -7 447 -9 1162
-7 1067 4 1070 4 1153 26 325 86 574 329 662 645 26 93 242 1812 242 1927 0
110 -23 204 -74 310 -34 69 -59 102 -133 175 -73 74 -106 98 -175 132 -133 64
-184 73 -428 73 l-212 0 0 203 c0 321 -26 461 -119 652 -205 418 -655 661
-1116 604z m303 -379 c271 -65 477 -271 542 -542 17 -70 20 -118 20 -310 l0
-228 -730 0 -730 0 0 224 c0 245 10 318 56 428 91 217 289 382 517 432 94 21
228 19 325 -4z m1393 -1471 c108 -51 185 -158 195 -271 7 -73 -208 -1792 -236
-1880 -53 -174 -212 -320 -392 -363 -94 -22 -2162 -22 -2256 0 -178 42 -334
185 -391 358 -27 83 -245 1808 -237 1885 13 137 119 259 253 291 22 5 677 8
1523 8 l1485 -2 56 -26z"/>
<path d="M1557 2719 c-124 -65 -123 -255 3 -319 135 -69 293 47 266 194 -22
116 -162 182 -269 125z"/>
<path d="M3385 2717 c-162 -92 -98 -336 88 -337 148 0 233 157 151 282 -49 75
-159 101 -239 55z"/>
</g>
</svg>
