<?xml version="1.0" standalone="no"?>
<!DOCTYPE svg PUBLIC "-//W3C//DTD SVG 20010904//EN"
 "http://www.w3.org/TR/2001/REC-SVG-20010904/DTD/svg10.dtd">
<svg version="1.0" xmlns="http://www.w3.org/2000/svg"
 width="512.000000pt" height="512.000000pt" viewBox="0 0 512.000000 512.000000"
 preserveAspectRatio="xMidYMid meet">

<g transform="translate(0.000000,512.000000) scale(0.100000,-0.100000)"
fill="#000000" stroke="none">
<path d="M2425 4929 c-269 -34 -546 -188 -714 -397 -74 -92 -155 -237 -189
-337 -45 -134 -54 -201 -59 -467 l-5 -258 -211 0 c-243 0 -295 -9 -427 -73
-69 -34 -102 -58 -175 -132 -74 -73 -99 -106 -133 -175 -51 -106 -74 -200 -74
-310 0 -111 216 -1832 242 -1927 98 -359 406 -620 783 -664 61 -7 447 -9 1162
-7 1067 4 1070 4 1153 26 325 86 574 329 662 645 26 93 242 1812 242 1927 0
110 -23 204 -74 310 -34 69 -59 102 -133 175 -73 74 -106 98 -175 132 -133 64
-184 73 -428 73 l-212 0 0 203 c0 321 -26 461 -119 652 -205 418 -655 661
-1116 604z m303 -379 c271 -65 477 -271 542 -542 17 -70 20 -118 20 -310 l0
-228 -730 0 -730 0 0 224 c0 245 10 318 56 428 91 217 289 382 517 432 94 21
228 19 325 -4z m-935 -1838 c66 -29 151 -113 184 -181 24 -49 27 -68 28 -151
0 -88 -3 -101 -33 -162 -138 -280 -534 -269 -664 18 -18 39 -22 68 -23 139 0
78 4 98 28 150 44 94 120 164 218 199 62 23 198 17 262 -12z m1840 -7 c71 -35
140 -107 175 -183 23 -49 27 -70 27 -147 -1 -78 -5 -98 -30 -150 -93 -192
-315 -267 -502 -169 -205 108 -257 389 -102 558 90 99 158 127 289 123 69 -3
96 -9 143 -32z"/>
</g>
</svg>
