<?xml version="1.0" encoding="UTF-8"?>
<!DOCTYPE svg PUBLIC "-//W3C//DTD SVG 1.1//EN" "http://www.w3.org/Graphics/SVG/1.1/DTD/svg11.dtd">
<svg xmlns="http://www.w3.org/2000/svg" version="1.1" width="512px" height="512px" style="shape-rendering:geometricPrecision; text-rendering:geometricPrecision; image-rendering:optimizeQuality; fill-rule:evenodd; clip-rule:evenodd" xmlns:xlink="http://www.w3.org/1999/xlink">
<g><path style="opacity:0.975" fill="#000000" d="M 333.5,63.5 C 347.794,60.7215 357.294,66.0549 362,79.5C 362.5,88.1603 362.666,96.8269 362.5,105.5C 392.169,105.333 421.835,105.5 451.5,106C 466.198,110.553 471.698,120.386 468,135.5C 464.605,142.561 459.105,147.061 451.5,149C 421.835,149.5 392.169,149.667 362.5,149.5C 362.666,158.173 362.5,166.84 362,175.5C 357.585,188.797 348.419,193.964 334.5,191C 328.159,189.325 323.659,185.492 321,179.5C 319.354,145.56 319.021,111.56 320,77.5C 322.687,70.981 327.187,66.3143 333.5,63.5 Z"/></g>
<g><path style="opacity:0.965" fill="#000000" d="M 59.5,105.5 C 126.167,105.333 192.834,105.5 259.5,106C 274.198,110.553 279.698,120.386 276,135.5C 272.605,142.561 267.105,147.061 259.5,149C 192.833,149.667 126.167,149.667 59.5,149C 44.8025,144.447 39.3025,134.614 43,119.5C 46.2825,112.124 51.7825,107.457 59.5,105.5 Z"/></g>
<g><path style="opacity:0.974" fill="#000000" d="M 163.5,191.5 C 176.356,189.177 185.523,193.844 191,205.5C 191.667,238.833 191.667,272.167 191,305.5C 183.832,319.225 172.999,323.058 158.5,317C 153.814,313.635 150.647,309.135 149,303.5C 148.5,294.84 148.334,286.173 148.5,277.5C 118.831,277.667 89.1648,277.5 59.5,277C 44.8025,272.447 39.3025,262.614 43,247.5C 46.0481,240.053 51.5481,235.553 59.5,234C 89.1648,233.5 118.831,233.333 148.5,233.5C 148.08,223.753 148.58,214.086 150,204.5C 152.73,198.238 157.23,193.904 163.5,191.5 Z"/></g>
<g><path style="opacity:0.965" fill="#000000" d="M 251.5,233.5 C 318.167,233.333 384.834,233.5 451.5,234C 466.198,238.553 471.698,248.386 468,263.5C 464.605,270.561 459.105,275.061 451.5,277C 384.833,277.667 318.167,277.667 251.5,277C 236.802,272.447 231.302,262.614 235,247.5C 238.283,240.124 243.783,235.457 251.5,233.5 Z"/></g>
<g><path style="opacity:0.975" fill="#000000" d="M 333.5,319.5 C 347.794,316.722 357.294,322.055 362,335.5C 362.5,344.16 362.666,352.827 362.5,361.5C 392.169,361.333 421.835,361.5 451.5,362C 466.198,366.553 471.698,376.386 468,391.5C 464.605,398.561 459.105,403.061 451.5,405C 421.835,405.5 392.169,405.667 362.5,405.5C 362.666,414.173 362.5,422.84 362,431.5C 357.585,444.797 348.419,449.964 334.5,447C 328.159,445.325 323.659,441.492 321,435.5C 319.354,401.56 319.021,367.56 320,333.5C 322.687,326.981 327.187,322.314 333.5,319.5 Z"/></g>
<g><path style="opacity:0.965" fill="#000000" d="M 59.5,361.5 C 126.167,361.333 192.834,361.5 259.5,362C 274.198,366.553 279.698,376.386 276,391.5C 272.605,398.561 267.105,403.061 259.5,405C 192.833,405.667 126.167,405.667 59.5,405C 44.8025,400.447 39.3025,390.614 43,375.5C 46.2825,368.124 51.7825,363.457 59.5,361.5 Z"/></g>
</svg>
