<?xml version="1.0" standalone="no"?>
<!DOCTYPE svg PUBLIC "-//W3C//DTD SVG 20010904//EN"
 "http://www.w3.org/TR/2001/REC-SVG-20010904/DTD/svg10.dtd">
<svg version="1.0" xmlns="http://www.w3.org/2000/svg"
 width="512.000000pt" height="512.000000pt" viewBox="0 0 512.000000 512.000000"
 preserveAspectRatio="xMidYMid meet">

<g transform="translate(0.000000,512.000000) scale(0.100000,-0.100000)"
fill="#000000" stroke="none">
<path d="M2503 4928 c-42 -14 -2081 -1682 -2110 -1727 l-23 -34 0 -1167 c0
-1325 -5 -1234 84 -1408 111 -215 328 -368 570 -401 104 -15 798 -14 850 0 55
15 93 46 116 94 19 40 20 62 20 736 0 453 4 716 11 755 16 87 71 195 132 257
67 69 118 101 211 132 63 21 93 25 193 25 66 0 140 -6 168 -14 167 -44 293
-161 358 -333 22 -57 22 -66 27 -799 l5 -740 27 -41 c51 -77 53 -78 483 -81
238 -2 411 1 464 8 297 39 532 237 635 535 20 59 21 76 24 1245 2 834 -1 1192
-8 1211 -6 14 -30 44 -53 66 -79 75 -2029 1664 -2056 1675 -40 16 -93 18 -128
6z m977 -1161 l905 -742 3 -1060 c2 -1153 4 -1122 -53 -1220 -36 -60 -115
-132 -183 -163 l-57 -27 -312 -3 -312 -3 -3 653 -3 653 -34 97 c-56 163 -142
289 -276 406 -72 63 -232 146 -335 173 -97 26 -308 36 -418 20 -365 -53 -662
-331 -738 -691 -11 -51 -14 -196 -14 -688 l0 -623 -312 3 -313 3 -57 27 c-68
31 -147 103 -183 163 -57 98 -55 67 -53 1220 l3 1059 905 742 c498 408 912
742 920 743 8 0 422 -334 920 -742z"/>
</g>
</svg>
