<?xml version="1.0" encoding="UTF-8"?>
<!DOCTYPE svg PUBLIC "-//W3C//DTD SVG 1.1//EN" "http://www.w3.org/Graphics/SVG/1.1/DTD/svg11.dtd">
<svg xmlns="http://www.w3.org/2000/svg" version="1.1" width="512px" height="512px" style="shape-rendering:geometricPrecision; text-rendering:geometricPrecision; image-rendering:optimizeQuality; fill-rule:evenodd; clip-rule:evenodd" xmlns:xlink="http://www.w3.org/1999/xlink">
<g><path style="opacity:0.963" fill="#000000" d="M 237.5,22.5 C 318.313,18.8429 384.813,47.5096 437,108.5C 486.113,172.734 500.113,244.067 479,322.5C 457.933,387.232 417.099,435.065 356.5,466C 285.877,497.168 215.877,495.835 146.5,462C 73.1835,420.606 32.0169,357.773 23,273.5C 18.9119,187.991 50.4119,119.158 117.5,67C 153.508,41.3864 193.508,26.5531 237.5,22.5 Z M 239.5,54.5 C 307.556,51.2233 364.056,74.89 409,125.5C 457.382,186.792 468.715,254.459 443,328.5C 410.389,403.748 353.222,446.248 271.5,456C 200.331,459.485 142.164,433.985 97,379.5C 52.7666,319.084 43.0999,253.417 68,182.5C 100.769,107.241 157.936,64.5744 239.5,54.5 Z M 347.5,171.5 C 348.665,227.999 348.832,284.665 348,341.5C 319.653,313.32 291.486,284.986 263.5,256.5C 291.521,228.146 319.521,199.812 347.5,171.5 Z M 222.5,172.5 C 223.665,228.332 223.832,284.332 223,340.5C 194.986,312.653 167.153,284.653 139.5,256.5C 167.188,228.479 194.854,200.479 222.5,172.5 Z"/></g>
<g><path style="opacity:0.962" fill="#000000" d="M 227.5,130.5 C 241.187,130.362 250.354,136.696 255,149.5C 255.333,172.167 255.667,194.833 256,217.5C 283.528,189.638 311.361,162.138 339.5,135C 353.659,128.068 365.826,130.568 376,142.5C 378.34,146.521 379.674,150.854 380,155.5C 380.667,223.167 380.667,290.833 380,358.5C 375.885,377.149 364.385,384.649 345.5,381C 342.554,380.194 339.888,378.861 337.5,377C 310.333,349.833 283.167,322.667 256,295.5C 255.97,319.23 255.304,342.896 254,366.5C 246.034,380.891 234.201,385.391 218.5,380C 216.833,379 215.167,378 213.5,377C 178.667,342.167 143.833,307.333 109,272.5C 102.733,261.26 103.066,250.26 110,239.5C 144.167,205.333 178.333,171.167 212.5,137C 217.142,133.74 222.142,131.573 227.5,130.5 Z M 347.5,171.5 C 319.521,199.812 291.521,228.146 263.5,256.5C 291.486,284.986 319.653,313.32 348,341.5C 348.832,284.665 348.665,227.999 347.5,171.5 Z M 222.5,172.5 C 194.854,200.479 167.188,228.479 139.5,256.5C 167.153,284.653 194.986,312.653 223,340.5C 223.832,284.332 223.665,228.332 222.5,172.5 Z"/></g>
</svg>
