<?xml version="1.0" standalone="no"?>
<!DOCTYPE svg PUBLIC "-//W3C//DTD SVG 20010904//EN"
 "http://www.w3.org/TR/2001/REC-SVG-20010904/DTD/svg10.dtd">
<svg version="1.0" xmlns="http://www.w3.org/2000/svg"
 width="512.000000pt" height="512.000000pt" viewBox="0 0 512.000000 512.000000"
 preserveAspectRatio="xMidYMid meet">

<g transform="translate(0.000000,512.000000) scale(0.100000,-0.100000)"
fill="#000000" stroke="none">
<path d="M2016 4855 c-1020 -145 -1775 -1010 -1776 -2033 -1 -1027 752 -1893
1771 -2037 150 -21 420 -21 564 0 335 48 634 167 901 355 l81 58 439 -440
c241 -241 458 -451 481 -465 51 -30 139 -40 199 -24 58 16 118 63 151 118 24
41 28 59 28 123 0 53 -6 87 -19 115 -12 26 -177 199 -467 490 l-447 450 69
100 c80 115 194 340 239 469 152 443 156 901 10 1339 -98 294 -253 547 -475
776 -303 313 -672 509 -1109 592 -145 28 -492 35 -640 14z m596 -534 c614
-132 1065 -588 1199 -1211 32 -149 33 -438 1 -587 -70 -325 -196 -559 -426
-788 -142 -142 -251 -222 -410 -299 -515 -252 -1136 -192 -1596 155 -299 225
-510 565 -587 944 -27 136 -25 444 5 581 32 147 65 244 131 379 78 158 163
277 291 405 238 237 519 380 856 435 128 21 407 13 536 -14z"/>
</g>
</svg>
