<?xml version="1.0" standalone="no"?>
<!DOCTYPE svg PUBLIC "-//W3C//DTD SVG 20010904//EN"
 "http://www.w3.org/TR/2001/REC-SVG-20010904/DTD/svg10.dtd">
<svg version="1.0" xmlns="http://www.w3.org/2000/svg"
 width="512.000000pt" height="512.000000pt" viewBox="0 0 512.000000 512.000000"
 preserveAspectRatio="xMidYMid meet">

<g transform="translate(0.000000,512.000000) scale(0.100000,-0.100000)"
fill="#000000" stroke="none">
<path d="M2425 4929 c-188 -24 -406 -117 -557 -240 -191 -154 -327 -379 -384
-634 -25 -114 -23 -369 5 -525 80 -452 335 -778 709 -906 250 -86 498 -84 742
5 350 128 593 429 680 844 100 470 -6 872 -304 1160 -231 224 -570 336 -891
296z m303 -379 c335 -80 562 -371 562 -720 0 -394 -142 -694 -392 -825 -190
-100 -475 -103 -666 -6 -253 128 -402 432 -402 821 0 217 70 393 214 535 184
182 436 254 684 195z"/>
<path d="M2215 2179 c-445 -45 -855 -167 -1138 -338 -343 -208 -527 -473 -527
-761 0 -421 402 -717 1131 -835 511 -82 1246 -82 1759 1 644 103 1041 352
1115 700 71 334 -116 658 -520 900 -252 150 -613 266 -1005 320 -136 19 -675
28 -815 13z m580 -359 c784 -57 1407 -381 1407 -733 0 -342 -704 -556 -1762
-534 -287 6 -395 14 -615 43 -444 58 -774 194 -869 357 -120 204 42 448 419
633 379 186 898 271 1420 234z"/>
</g>
</svg>
